<svg xmlns="http://www.w3.org/2000/svg" xmlns:xlink="http://www.w3.org/1999/xlink" width="500" zoomAndPan="magnify" viewBox="0 0 375 374.999991" height="500" preserveAspectRatio="xMidYMid meet" version="1.2"><defs><clipPath id="909f052505"><path d="M 97 94.382812 L 278 94.382812 L 278 165 L 97 165 Z M 97 94.382812 "/></clipPath><clipPath id="b834248e22"><path d="M 56.351562 233 L 318.851562 233 L 318.851562 280.382812 L 56.351562 280.382812 Z M 56.351562 233 "/></clipPath></defs><g id="7deae31785"><path style=" stroke:none;fill-rule:nonzero;fill:#000000;fill-opacity:1;" d="M 298.261719 199.007812 C 298.261719 186.191406 287.804688 175.757812 274.964844 175.757812 L 82.765625 175.757812 L 82.765625 187.382812 L 91.503906 187.382812 C 97.9375 187.382812 103.152344 192.585938 103.152344 199.007812 C 103.152344 205.433594 97.9375 210.632812 91.503906 210.632812 L 82.765625 210.632812 L 82.765625 222.257812 L 274.964844 222.257812 C 287.804688 222.257812 298.261719 211.828125 298.261719 199.007812 Z M 265.996094 187.382812 L 274.964844 187.382812 C 281.398438 187.382812 286.613281 192.585938 286.613281 199.007812 C 286.613281 205.433594 281.398438 210.632812 274.964844 210.632812 L 265.996094 210.632812 C 267.976562 207.207031 269.140625 203.253906 269.140625 199.007812 C 269.140625 194.765625 267.976562 190.8125 265.996094 187.382812 Z M 265.996094 187.382812 "/><g clip-rule="nonzero" clip-path="url(#909f052505)"><path style=" stroke:none;fill-rule:nonzero;fill:#000000;fill-opacity:1;" d="M 146.832031 164.132812 C 166.023438 164.132812 181.660156 148.585938 181.777344 129.464844 C 181.777344 127.863281 182.417969 126.410156 183.496094 125.367188 C 184.542969 124.320312 186 123.652344 187.601562 123.652344 C 190.804688 123.652344 193.425781 126.265625 193.425781 129.464844 C 193.484375 139.023438 197.414062 147.683594 203.734375 153.960938 C 210.082031 160.242188 218.761719 164.132812 228.371094 164.132812 C 245.640625 164.132812 259.996094 151.550781 262.792969 135.070312 L 277.875 135.070312 L 277.875 123.445312 L 262.792969 123.445312 C 259.996094 106.96875 245.640625 94.382812 228.371094 94.382812 C 214.363281 94.382812 202.277344 102.695312 196.714844 114.613281 C 194.039062 112.984375 190.949219 112.027344 187.601562 112.027344 C 184.253906 112.027344 181.164062 112.984375 178.488281 114.613281 C 172.925781 102.695312 160.839844 94.382812 146.832031 94.382812 C 129.5625 94.382812 115.207031 106.96875 112.410156 123.445312 L 97.328125 123.445312 L 97.328125 135.070312 L 112.410156 135.070312 C 115.207031 151.550781 129.5625 164.132812 146.832031 164.132812 Z M 241.648438 110.195312 C 247.707031 114.378906 251.667969 121.382812 251.667969 129.257812 C 251.667969 142.078125 241.210938 152.507812 228.371094 152.507812 C 220.480469 152.507812 213.460938 148.558594 209.265625 142.511719 Z M 160.113281 110.195312 C 166.167969 114.378906 170.128906 121.382812 170.128906 129.257812 C 170.128906 142.078125 159.675781 152.507812 146.832031 152.507812 C 138.941406 152.507812 131.921875 148.558594 127.730469 142.511719 Z M 160.113281 110.195312 "/></g><g clip-rule="nonzero" clip-path="url(#b834248e22)"><path style=" stroke:none;fill-rule:nonzero;fill:#000000;fill-opacity:1;" d="M 304.085938 245.507812 L 318.644531 245.507812 L 318.644531 233.882812 L 79.855469 233.882812 C 67.011719 233.882812 56.558594 244.316406 56.558594 257.132812 C 56.558594 269.953125 67.011719 280.382812 79.855469 280.382812 L 318.644531 280.382812 L 318.644531 268.757812 L 304.085938 268.757812 C 297.648438 268.757812 292.4375 263.558594 292.4375 257.132812 C 292.4375 250.710938 297.648438 245.507812 304.085938 245.507812 Z M 88.824219 268.757812 L 79.855469 268.757812 C 73.417969 268.757812 68.207031 263.558594 68.207031 257.132812 C 68.207031 250.710938 73.417969 245.507812 79.855469 245.507812 L 88.824219 245.507812 C 86.84375 248.9375 85.679688 252.890625 85.679688 257.132812 C 85.679688 261.378906 86.84375 265.332031 88.824219 268.757812 Z M 88.824219 268.757812 "/></g><g style="fill:#ffffff;fill-opacity:1;"><g transform="translate(0.0000045, 369.699996)"><path style="stroke:none" d="M 4.625 0.21875 C 3.863281 0.21875 3.203125 0.0820312 2.640625 -0.1875 C 2.085938 -0.46875 1.660156 -0.878906 1.359375 -1.421875 C 1.054688 -1.960938 0.90625 -2.613281 0.90625 -3.375 C 0.90625 -4.070312 1.054688 -4.660156 1.359375 -5.140625 C 1.660156 -5.617188 2.125 -6.007812 2.75 -6.3125 C 3.382812 -6.613281 4.207031 -6.847656 5.21875 -7.015625 C 5.925781 -7.128906 6.460938 -7.253906 6.828125 -7.390625 C 7.203125 -7.523438 7.453125 -7.675781 7.578125 -7.84375 C 7.710938 -8.019531 7.78125 -8.242188 7.78125 -8.515625 C 7.78125 -8.890625 7.644531 -9.175781 7.375 -9.375 C 7.113281 -9.570312 6.675781 -9.671875 6.0625 -9.671875 C 5.40625 -9.671875 4.773438 -9.523438 4.171875 -9.234375 C 3.578125 -8.941406 3.0625 -8.554688 2.625 -8.078125 L 2.421875 -8.078125 L 1.171875 -9.953125 C 1.773438 -10.617188 2.507812 -11.140625 3.375 -11.515625 C 4.238281 -11.890625 5.179688 -12.078125 6.203125 -12.078125 C 7.773438 -12.078125 8.910156 -11.742188 9.609375 -11.078125 C 10.316406 -10.410156 10.671875 -9.460938 10.671875 -8.234375 L 10.671875 -3.09375 C 10.671875 -2.5625 10.898438 -2.296875 11.359375 -2.296875 C 11.546875 -2.296875 11.722656 -2.328125 11.890625 -2.390625 L 12.046875 -2.359375 L 12.25 -0.28125 C 12.09375 -0.175781 11.863281 -0.0859375 11.5625 -0.015625 C 11.269531 0.0546875 10.953125 0.09375 10.609375 0.09375 C 9.898438 0.09375 9.34375 -0.0390625 8.9375 -0.3125 C 8.539062 -0.59375 8.257812 -1.019531 8.09375 -1.59375 L 7.859375 -1.625 C 7.285156 -0.394531 6.207031 0.21875 4.625 0.21875 Z M 5.5625 -2 C 6.25 -2 6.796875 -2.226562 7.203125 -2.6875 C 7.617188 -3.15625 7.828125 -3.800781 7.828125 -4.625 L 7.828125 -5.828125 L 7.625 -5.859375 C 7.445312 -5.722656 7.210938 -5.601562 6.921875 -5.5 C 6.628906 -5.40625 6.210938 -5.3125 5.671875 -5.21875 C 5.023438 -5.113281 4.5625 -4.929688 4.28125 -4.671875 C 4 -4.410156 3.859375 -4.039062 3.859375 -3.5625 C 3.859375 -3.050781 4.007812 -2.660156 4.3125 -2.390625 C 4.613281 -2.128906 5.03125 -2 5.5625 -2 Z M 5.5625 -2 "/></g></g></g></svg>